<?xml version="1.0" encoding="UTF-8"?>
<svg xmlns="http://www.w3.org/2000/svg" xmlns:xlink="http://www.w3.org/1999/xlink" width="1080pt" height="360pt" viewBox="0 0 1080 360" version="1.1">
<g id="surface14">
<rect x="0" y="0" width="1080" height="360" style="fill:rgb(100%,100%,100%);fill-opacity:1;stroke:none;"/>
<path style="fill-rule:nonzero;fill:rgb(1.176471%,76.078431%,98.823529%);fill-opacity:1;stroke-width:0.213396;stroke-linecap:butt;stroke-linejoin:miter;stroke:rgb(0%,0%,0%);stroke-opacity:1;stroke-miterlimit:10;" d="M 49.089844 343.636719 L 114.542969 343.636719 L 114.542969 278.183594 L 49.089844 278.183594 Z M 49.089844 343.636719 "/>
<path style="fill-rule:nonzero;fill:rgb(1.176471%,76.078431%,98.823529%);fill-opacity:1;stroke-width:0.213396;stroke-linecap:butt;stroke-linejoin:miter;stroke:rgb(0%,0%,0%);stroke-opacity:1;stroke-miterlimit:10;" d="M 114.546875 343.636719 L 180 343.636719 L 180 278.183594 L 114.546875 278.183594 Z M 114.546875 343.636719 "/>
<path style="fill-rule:nonzero;fill:rgb(1.176471%,76.078431%,98.823529%);fill-opacity:1;stroke-width:0.213396;stroke-linecap:butt;stroke-linejoin:miter;stroke:rgb(0%,0%,0%);stroke-opacity:1;stroke-miterlimit:10;" d="M 180 343.636719 L 245.453125 343.636719 L 245.453125 278.183594 L 180 278.183594 Z M 180 343.636719 "/>
<path style="fill-rule:nonzero;fill:rgb(1.176471%,76.078431%,98.823529%);fill-opacity:1;stroke-width:0.213396;stroke-linecap:butt;stroke-linejoin:miter;stroke:rgb(0%,0%,0%);stroke-opacity:1;stroke-miterlimit:10;" d="M 245.453125 343.636719 L 310.90625 343.636719 L 310.90625 278.183594 L 245.453125 278.183594 Z M 245.453125 343.636719 "/>
<path style="fill-rule:nonzero;fill:rgb(1.176471%,76.078431%,98.823529%);fill-opacity:1;stroke-width:0.213396;stroke-linecap:butt;stroke-linejoin:miter;stroke:rgb(0%,0%,0%);stroke-opacity:1;stroke-miterlimit:10;" d="M 310.910156 343.636719 L 376.363281 343.636719 L 376.363281 278.183594 L 310.910156 278.183594 Z M 310.910156 343.636719 "/>
<path style="fill-rule:nonzero;fill:rgb(1.176471%,76.078431%,98.823529%);fill-opacity:1;stroke-width:0.213396;stroke-linecap:butt;stroke-linejoin:miter;stroke:rgb(0%,0%,0%);stroke-opacity:1;stroke-miterlimit:10;" d="M 376.363281 343.636719 L 441.816406 343.636719 L 441.816406 278.183594 L 376.363281 278.183594 Z M 376.363281 343.636719 "/>
<path style="fill-rule:nonzero;fill:rgb(1.176471%,76.078431%,98.823529%);fill-opacity:1;stroke-width:0.213396;stroke-linecap:butt;stroke-linejoin:miter;stroke:rgb(0%,0%,0%);stroke-opacity:1;stroke-miterlimit:10;" d="M 441.816406 343.636719 L 507.269531 343.636719 L 507.269531 278.183594 L 441.816406 278.183594 Z M 441.816406 343.636719 "/>
<path style="fill-rule:nonzero;fill:rgb(1.176471%,76.078431%,98.823529%);fill-opacity:1;stroke-width:0.213396;stroke-linecap:butt;stroke-linejoin:miter;stroke:rgb(0%,0%,0%);stroke-opacity:1;stroke-miterlimit:10;" d="M 507.273438 343.636719 L 572.726563 343.636719 L 572.726563 278.183594 L 507.273438 278.183594 Z M 507.273438 343.636719 "/>
<path style="fill-rule:nonzero;fill:rgb(1.176471%,76.078431%,98.823529%);fill-opacity:1;stroke-width:0.213396;stroke-linecap:butt;stroke-linejoin:miter;stroke:rgb(0%,0%,0%);stroke-opacity:1;stroke-miterlimit:10;" d="M 572.726563 343.636719 L 638.179688 343.636719 L 638.179688 278.183594 L 572.726563 278.183594 Z M 572.726563 343.636719 "/>
<path style="fill-rule:nonzero;fill:rgb(1.176471%,76.078431%,98.823529%);fill-opacity:1;stroke-width:0.213396;stroke-linecap:butt;stroke-linejoin:miter;stroke:rgb(0%,0%,0%);stroke-opacity:1;stroke-miterlimit:10;" d="M 638.183594 343.636719 L 703.636719 343.636719 L 703.636719 278.183594 L 638.183594 278.183594 Z M 638.183594 343.636719 "/>
<path style="fill-rule:nonzero;fill:rgb(1.176471%,76.078431%,98.823529%);fill-opacity:1;stroke-width:0.213396;stroke-linecap:butt;stroke-linejoin:miter;stroke:rgb(0%,0%,0%);stroke-opacity:1;stroke-miterlimit:10;" d="M 703.636719 343.636719 L 769.089844 343.636719 L 769.089844 278.183594 L 703.636719 278.183594 Z M 703.636719 343.636719 "/>
<path style="fill-rule:nonzero;fill:rgb(1.176471%,76.078431%,98.823529%);fill-opacity:1;stroke-width:0.213396;stroke-linecap:butt;stroke-linejoin:miter;stroke:rgb(0%,0%,0%);stroke-opacity:1;stroke-miterlimit:10;" d="M 769.089844 343.636719 L 834.542969 343.636719 L 834.542969 278.183594 L 769.089844 278.183594 Z M 769.089844 343.636719 "/>
<path style="fill-rule:nonzero;fill:rgb(1.176471%,76.078431%,98.823529%);fill-opacity:1;stroke-width:0.213396;stroke-linecap:butt;stroke-linejoin:miter;stroke:rgb(0%,0%,0%);stroke-opacity:1;stroke-miterlimit:10;" d="M 834.546875 343.636719 L 900 343.636719 L 900 278.183594 L 834.546875 278.183594 Z M 834.546875 343.636719 "/>
<path style="fill-rule:nonzero;fill:rgb(1.176471%,76.078431%,98.823529%);fill-opacity:1;stroke-width:0.213396;stroke-linecap:butt;stroke-linejoin:miter;stroke:rgb(0%,0%,0%);stroke-opacity:1;stroke-miterlimit:10;" d="M 900 343.636719 L 965.453125 343.636719 L 965.453125 278.183594 L 900 278.183594 Z M 900 343.636719 "/>
<path style="fill-rule:nonzero;fill:rgb(1.176471%,76.078431%,98.823529%);fill-opacity:1;stroke-width:0.213396;stroke-linecap:butt;stroke-linejoin:miter;stroke:rgb(0%,0%,0%);stroke-opacity:1;stroke-miterlimit:10;" d="M 965.453125 343.636719 L 1030.90625 343.636719 L 1030.90625 278.183594 L 965.453125 278.183594 Z M 965.453125 343.636719 "/>
<path style="fill-rule:nonzero;fill:rgb(1.176471%,76.078431%,98.823529%);fill-opacity:1;stroke-width:0.213396;stroke-linecap:butt;stroke-linejoin:miter;stroke:rgb(0%,0%,0%);stroke-opacity:1;stroke-miterlimit:10;" d="M 49.089844 278.183594 L 114.542969 278.183594 L 114.542969 212.730469 L 49.089844 212.730469 Z M 49.089844 278.183594 "/>
<path style="fill-rule:nonzero;fill:rgb(1.176471%,76.078431%,98.823529%);fill-opacity:1;stroke-width:0.213396;stroke-linecap:butt;stroke-linejoin:miter;stroke:rgb(0%,0%,0%);stroke-opacity:1;stroke-miterlimit:10;" d="M 114.546875 278.183594 L 180 278.183594 L 180 212.730469 L 114.546875 212.730469 Z M 114.546875 278.183594 "/>
<path style="fill-rule:nonzero;fill:rgb(1.176471%,76.078431%,98.823529%);fill-opacity:1;stroke-width:0.213396;stroke-linecap:butt;stroke-linejoin:miter;stroke:rgb(0%,0%,0%);stroke-opacity:1;stroke-miterlimit:10;" d="M 180 278.183594 L 245.453125 278.183594 L 245.453125 212.730469 L 180 212.730469 Z M 180 278.183594 "/>
<path style="fill-rule:nonzero;fill:rgb(1.176471%,76.078431%,98.823529%);fill-opacity:1;stroke-width:0.213396;stroke-linecap:butt;stroke-linejoin:miter;stroke:rgb(0%,0%,0%);stroke-opacity:1;stroke-miterlimit:10;" d="M 245.453125 278.183594 L 310.90625 278.183594 L 310.90625 212.730469 L 245.453125 212.730469 Z M 245.453125 278.183594 "/>
<path style="fill-rule:nonzero;fill:rgb(1.176471%,76.078431%,98.823529%);fill-opacity:1;stroke-width:0.213396;stroke-linecap:butt;stroke-linejoin:miter;stroke:rgb(0%,0%,0%);stroke-opacity:1;stroke-miterlimit:10;" d="M 310.910156 278.183594 L 376.363281 278.183594 L 376.363281 212.730469 L 310.910156 212.730469 Z M 310.910156 278.183594 "/>
<path style="fill-rule:nonzero;fill:rgb(1.176471%,76.078431%,98.823529%);fill-opacity:1;stroke-width:0.213396;stroke-linecap:butt;stroke-linejoin:miter;stroke:rgb(0%,0%,0%);stroke-opacity:1;stroke-miterlimit:10;" d="M 376.363281 278.183594 L 441.816406 278.183594 L 441.816406 212.730469 L 376.363281 212.730469 Z M 376.363281 278.183594 "/>
<path style="fill-rule:nonzero;fill:rgb(1.176471%,76.078431%,98.823529%);fill-opacity:1;stroke-width:0.213396;stroke-linecap:butt;stroke-linejoin:miter;stroke:rgb(0%,0%,0%);stroke-opacity:1;stroke-miterlimit:10;" d="M 441.816406 278.183594 L 507.269531 278.183594 L 507.269531 212.730469 L 441.816406 212.730469 Z M 441.816406 278.183594 "/>
<path style="fill-rule:nonzero;fill:rgb(1.176471%,76.078431%,98.823529%);fill-opacity:1;stroke-width:0.213396;stroke-linecap:butt;stroke-linejoin:miter;stroke:rgb(0%,0%,0%);stroke-opacity:1;stroke-miterlimit:10;" d="M 507.273438 278.183594 L 572.726563 278.183594 L 572.726563 212.730469 L 507.273438 212.730469 Z M 507.273438 278.183594 "/>
<path style="fill-rule:nonzero;fill:rgb(1.176471%,76.078431%,98.823529%);fill-opacity:1;stroke-width:0.213396;stroke-linecap:butt;stroke-linejoin:miter;stroke:rgb(0%,0%,0%);stroke-opacity:1;stroke-miterlimit:10;" d="M 572.726563 278.183594 L 638.179688 278.183594 L 638.179688 212.730469 L 572.726563 212.730469 Z M 572.726563 278.183594 "/>
<path style="fill-rule:nonzero;fill:rgb(1.176471%,76.078431%,98.823529%);fill-opacity:1;stroke-width:0.213396;stroke-linecap:butt;stroke-linejoin:miter;stroke:rgb(0%,0%,0%);stroke-opacity:1;stroke-miterlimit:10;" d="M 638.183594 278.183594 L 703.636719 278.183594 L 703.636719 212.730469 L 638.183594 212.730469 Z M 638.183594 278.183594 "/>
<path style="fill-rule:nonzero;fill:rgb(1.176471%,76.078431%,98.823529%);fill-opacity:1;stroke-width:0.213396;stroke-linecap:butt;stroke-linejoin:miter;stroke:rgb(0%,0%,0%);stroke-opacity:1;stroke-miterlimit:10;" d="M 703.636719 278.183594 L 769.089844 278.183594 L 769.089844 212.730469 L 703.636719 212.730469 Z M 703.636719 278.183594 "/>
<path style="fill-rule:nonzero;fill:rgb(1.176471%,76.078431%,98.823529%);fill-opacity:1;stroke-width:0.213396;stroke-linecap:butt;stroke-linejoin:miter;stroke:rgb(0%,0%,0%);stroke-opacity:1;stroke-miterlimit:10;" d="M 769.089844 278.183594 L 834.542969 278.183594 L 834.542969 212.730469 L 769.089844 212.730469 Z M 769.089844 278.183594 "/>
<path style="fill-rule:nonzero;fill:rgb(1.176471%,76.078431%,98.823529%);fill-opacity:1;stroke-width:0.213396;stroke-linecap:butt;stroke-linejoin:miter;stroke:rgb(0%,0%,0%);stroke-opacity:1;stroke-miterlimit:10;" d="M 834.546875 278.183594 L 900 278.183594 L 900 212.730469 L 834.546875 212.730469 Z M 834.546875 278.183594 "/>
<path style="fill-rule:nonzero;fill:rgb(1.176471%,76.078431%,98.823529%);fill-opacity:1;stroke-width:0.213396;stroke-linecap:butt;stroke-linejoin:miter;stroke:rgb(0%,0%,0%);stroke-opacity:1;stroke-miterlimit:10;" d="M 900 278.183594 L 965.453125 278.183594 L 965.453125 212.730469 L 900 212.730469 Z M 900 278.183594 "/>
<path style="fill-rule:nonzero;fill:rgb(1.176471%,76.078431%,98.823529%);fill-opacity:1;stroke-width:0.213396;stroke-linecap:butt;stroke-linejoin:miter;stroke:rgb(0%,0%,0%);stroke-opacity:1;stroke-miterlimit:10;" d="M 965.453125 278.183594 L 1030.90625 278.183594 L 1030.90625 212.730469 L 965.453125 212.730469 Z M 965.453125 278.183594 "/>
<path style="fill-rule:nonzero;fill:rgb(1.176471%,76.078431%,98.823529%);fill-opacity:1;stroke-width:0.213396;stroke-linecap:butt;stroke-linejoin:miter;stroke:rgb(0%,0%,0%);stroke-opacity:1;stroke-miterlimit:10;" d="M 49.089844 212.726563 L 114.542969 212.726563 L 114.542969 147.273438 L 49.089844 147.273438 Z M 49.089844 212.726563 "/>
<path style="fill-rule:nonzero;fill:rgb(1.176471%,76.078431%,98.823529%);fill-opacity:1;stroke-width:0.213396;stroke-linecap:butt;stroke-linejoin:miter;stroke:rgb(0%,0%,0%);stroke-opacity:1;stroke-miterlimit:10;" d="M 114.546875 212.726563 L 180 212.726563 L 180 147.273438 L 114.546875 147.273438 Z M 114.546875 212.726563 "/>
<path style="fill-rule:nonzero;fill:rgb(1.176471%,76.078431%,98.823529%);fill-opacity:1;stroke-width:0.213396;stroke-linecap:butt;stroke-linejoin:miter;stroke:rgb(0%,0%,0%);stroke-opacity:1;stroke-miterlimit:10;" d="M 180 212.726563 L 245.453125 212.726563 L 245.453125 147.273438 L 180 147.273438 Z M 180 212.726563 "/>
<path style="fill-rule:nonzero;fill:rgb(1.176471%,76.078431%,98.823529%);fill-opacity:1;stroke-width:0.213396;stroke-linecap:butt;stroke-linejoin:miter;stroke:rgb(0%,0%,0%);stroke-opacity:1;stroke-miterlimit:10;" d="M 245.453125 212.726563 L 310.90625 212.726563 L 310.90625 147.273438 L 245.453125 147.273438 Z M 245.453125 212.726563 "/>
<path style="fill-rule:nonzero;fill:rgb(1.176471%,76.078431%,98.823529%);fill-opacity:1;stroke-width:0.213396;stroke-linecap:butt;stroke-linejoin:miter;stroke:rgb(0%,0%,0%);stroke-opacity:1;stroke-miterlimit:10;" d="M 310.910156 212.726563 L 376.363281 212.726563 L 376.363281 147.273438 L 310.910156 147.273438 Z M 310.910156 212.726563 "/>
<path style="fill-rule:nonzero;fill:rgb(1.176471%,76.078431%,98.823529%);fill-opacity:1;stroke-width:0.213396;stroke-linecap:butt;stroke-linejoin:miter;stroke:rgb(0%,0%,0%);stroke-opacity:1;stroke-miterlimit:10;" d="M 376.363281 212.726563 L 441.816406 212.726563 L 441.816406 147.273438 L 376.363281 147.273438 Z M 376.363281 212.726563 "/>
<path style="fill-rule:nonzero;fill:rgb(1.176471%,76.078431%,98.823529%);fill-opacity:1;stroke-width:0.213396;stroke-linecap:butt;stroke-linejoin:miter;stroke:rgb(0%,0%,0%);stroke-opacity:1;stroke-miterlimit:10;" d="M 441.816406 212.726563 L 507.269531 212.726563 L 507.269531 147.273438 L 441.816406 147.273438 Z M 441.816406 212.726563 "/>
<path style="fill-rule:nonzero;fill:rgb(1.176471%,76.078431%,98.823529%);fill-opacity:1;stroke-width:0.213396;stroke-linecap:butt;stroke-linejoin:miter;stroke:rgb(0%,0%,0%);stroke-opacity:1;stroke-miterlimit:10;" d="M 507.273438 212.726563 L 572.726563 212.726563 L 572.726563 147.273438 L 507.273438 147.273438 Z M 507.273438 212.726563 "/>
<path style="fill-rule:nonzero;fill:rgb(1.176471%,76.078431%,98.823529%);fill-opacity:1;stroke-width:0.213396;stroke-linecap:butt;stroke-linejoin:miter;stroke:rgb(0%,0%,0%);stroke-opacity:1;stroke-miterlimit:10;" d="M 572.726563 212.726563 L 638.179688 212.726563 L 638.179688 147.273438 L 572.726563 147.273438 Z M 572.726563 212.726563 "/>
<path style="fill-rule:nonzero;fill:rgb(1.176471%,76.078431%,98.823529%);fill-opacity:1;stroke-width:0.213396;stroke-linecap:butt;stroke-linejoin:miter;stroke:rgb(0%,0%,0%);stroke-opacity:1;stroke-miterlimit:10;" d="M 638.183594 212.726563 L 703.636719 212.726563 L 703.636719 147.273438 L 638.183594 147.273438 Z M 638.183594 212.726563 "/>
<path style="fill-rule:nonzero;fill:rgb(1.176471%,76.078431%,98.823529%);fill-opacity:1;stroke-width:0.213396;stroke-linecap:butt;stroke-linejoin:miter;stroke:rgb(0%,0%,0%);stroke-opacity:1;stroke-miterlimit:10;" d="M 703.636719 212.726563 L 769.089844 212.726563 L 769.089844 147.273438 L 703.636719 147.273438 Z M 703.636719 212.726563 "/>
<path style="fill-rule:nonzero;fill:rgb(1.176471%,76.078431%,98.823529%);fill-opacity:1;stroke-width:0.213396;stroke-linecap:butt;stroke-linejoin:miter;stroke:rgb(0%,0%,0%);stroke-opacity:1;stroke-miterlimit:10;" d="M 769.089844 212.726563 L 834.542969 212.726563 L 834.542969 147.273438 L 769.089844 147.273438 Z M 769.089844 212.726563 "/>
<path style="fill-rule:nonzero;fill:rgb(1.176471%,76.078431%,98.823529%);fill-opacity:1;stroke-width:0.213396;stroke-linecap:butt;stroke-linejoin:miter;stroke:rgb(0%,0%,0%);stroke-opacity:1;stroke-miterlimit:10;" d="M 834.546875 212.726563 L 900 212.726563 L 900 147.273438 L 834.546875 147.273438 Z M 834.546875 212.726563 "/>
<path style="fill-rule:nonzero;fill:rgb(1.176471%,76.078431%,98.823529%);fill-opacity:1;stroke-width:0.213396;stroke-linecap:butt;stroke-linejoin:miter;stroke:rgb(0%,0%,0%);stroke-opacity:1;stroke-miterlimit:10;" d="M 900 212.726563 L 965.453125 212.726563 L 965.453125 147.273438 L 900 147.273438 Z M 900 212.726563 "/>
<path style="fill-rule:nonzero;fill:rgb(1.176471%,76.078431%,98.823529%);fill-opacity:1;stroke-width:0.213396;stroke-linecap:butt;stroke-linejoin:miter;stroke:rgb(0%,0%,0%);stroke-opacity:1;stroke-miterlimit:10;" d="M 965.453125 212.726563 L 1030.90625 212.726563 L 1030.90625 147.273438 L 965.453125 147.273438 Z M 965.453125 212.726563 "/>
<path style="fill-rule:nonzero;fill:rgb(1.176471%,76.078431%,98.823529%);fill-opacity:1;stroke-width:0.213396;stroke-linecap:butt;stroke-linejoin:miter;stroke:rgb(0%,0%,0%);stroke-opacity:1;stroke-miterlimit:10;" d="M 49.089844 147.273438 L 114.542969 147.273438 L 114.542969 81.820313 L 49.089844 81.820313 Z M 49.089844 147.273438 "/>
<path style="fill-rule:nonzero;fill:rgb(1.176471%,76.078431%,98.823529%);fill-opacity:1;stroke-width:0.213396;stroke-linecap:butt;stroke-linejoin:miter;stroke:rgb(0%,0%,0%);stroke-opacity:1;stroke-miterlimit:10;" d="M 114.546875 147.273438 L 180 147.273438 L 180 81.820313 L 114.546875 81.820313 Z M 114.546875 147.273438 "/>
<path style="fill-rule:nonzero;fill:rgb(1.176471%,76.078431%,98.823529%);fill-opacity:1;stroke-width:0.213396;stroke-linecap:butt;stroke-linejoin:miter;stroke:rgb(0%,0%,0%);stroke-opacity:1;stroke-miterlimit:10;" d="M 180 147.273438 L 245.453125 147.273438 L 245.453125 81.820313 L 180 81.820313 Z M 180 147.273438 "/>
<path style="fill-rule:nonzero;fill:rgb(1.176471%,76.078431%,98.823529%);fill-opacity:1;stroke-width:0.213396;stroke-linecap:butt;stroke-linejoin:miter;stroke:rgb(0%,0%,0%);stroke-opacity:1;stroke-miterlimit:10;" d="M 245.453125 147.273438 L 310.90625 147.273438 L 310.90625 81.820313 L 245.453125 81.820313 Z M 245.453125 147.273438 "/>
<path style="fill-rule:nonzero;fill:rgb(1.176471%,76.078431%,98.823529%);fill-opacity:1;stroke-width:0.213396;stroke-linecap:butt;stroke-linejoin:miter;stroke:rgb(0%,0%,0%);stroke-opacity:1;stroke-miterlimit:10;" d="M 310.910156 147.273438 L 376.363281 147.273438 L 376.363281 81.820313 L 310.910156 81.820313 Z M 310.910156 147.273438 "/>
<path style="fill-rule:nonzero;fill:rgb(1.176471%,76.078431%,98.823529%);fill-opacity:1;stroke-width:0.213396;stroke-linecap:butt;stroke-linejoin:miter;stroke:rgb(0%,0%,0%);stroke-opacity:1;stroke-miterlimit:10;" d="M 376.363281 147.273438 L 441.816406 147.273438 L 441.816406 81.820313 L 376.363281 81.820313 Z M 376.363281 147.273438 "/>
<path style="fill-rule:nonzero;fill:rgb(1.176471%,76.078431%,98.823529%);fill-opacity:1;stroke-width:0.213396;stroke-linecap:butt;stroke-linejoin:miter;stroke:rgb(0%,0%,0%);stroke-opacity:1;stroke-miterlimit:10;" d="M 441.816406 147.273438 L 507.269531 147.273438 L 507.269531 81.820313 L 441.816406 81.820313 Z M 441.816406 147.273438 "/>
<path style="fill-rule:nonzero;fill:rgb(1.176471%,76.078431%,98.823529%);fill-opacity:1;stroke-width:0.213396;stroke-linecap:butt;stroke-linejoin:miter;stroke:rgb(0%,0%,0%);stroke-opacity:1;stroke-miterlimit:10;" d="M 507.273438 147.273438 L 572.726563 147.273438 L 572.726563 81.820313 L 507.273438 81.820313 Z M 507.273438 147.273438 "/>
<path style="fill-rule:nonzero;fill:rgb(1.176471%,76.078431%,98.823529%);fill-opacity:1;stroke-width:0.213396;stroke-linecap:butt;stroke-linejoin:miter;stroke:rgb(0%,0%,0%);stroke-opacity:1;stroke-miterlimit:10;" d="M 572.726563 147.273438 L 638.179688 147.273438 L 638.179688 81.820313 L 572.726563 81.820313 Z M 572.726563 147.273438 "/>
<path style="fill-rule:nonzero;fill:rgb(1.176471%,76.078431%,98.823529%);fill-opacity:1;stroke-width:0.213396;stroke-linecap:butt;stroke-linejoin:miter;stroke:rgb(0%,0%,0%);stroke-opacity:1;stroke-miterlimit:10;" d="M 638.183594 147.273438 L 703.636719 147.273438 L 703.636719 81.820313 L 638.183594 81.820313 Z M 638.183594 147.273438 "/>
<path style="fill-rule:nonzero;fill:rgb(1.176471%,76.078431%,98.823529%);fill-opacity:1;stroke-width:0.213396;stroke-linecap:butt;stroke-linejoin:miter;stroke:rgb(0%,0%,0%);stroke-opacity:1;stroke-miterlimit:10;" d="M 703.636719 147.273438 L 769.089844 147.273438 L 769.089844 81.820313 L 703.636719 81.820313 Z M 703.636719 147.273438 "/>
<path style="fill-rule:nonzero;fill:rgb(1.176471%,76.078431%,98.823529%);fill-opacity:1;stroke-width:0.213396;stroke-linecap:butt;stroke-linejoin:miter;stroke:rgb(0%,0%,0%);stroke-opacity:1;stroke-miterlimit:10;" d="M 769.089844 147.273438 L 834.542969 147.273438 L 834.542969 81.820313 L 769.089844 81.820313 Z M 769.089844 147.273438 "/>
<path style="fill-rule:nonzero;fill:rgb(1.176471%,76.078431%,98.823529%);fill-opacity:1;stroke-width:0.213396;stroke-linecap:butt;stroke-linejoin:miter;stroke:rgb(0%,0%,0%);stroke-opacity:1;stroke-miterlimit:10;" d="M 834.546875 147.273438 L 900 147.273438 L 900 81.820313 L 834.546875 81.820313 Z M 834.546875 147.273438 "/>
<path style="fill-rule:nonzero;fill:rgb(1.176471%,76.078431%,98.823529%);fill-opacity:1;stroke-width:0.213396;stroke-linecap:butt;stroke-linejoin:miter;stroke:rgb(0%,0%,0%);stroke-opacity:1;stroke-miterlimit:10;" d="M 900 147.273438 L 965.453125 147.273438 L 965.453125 81.820313 L 900 81.820313 Z M 900 147.273438 "/>
<path style="fill-rule:nonzero;fill:rgb(1.176471%,76.078431%,98.823529%);fill-opacity:1;stroke-width:0.213396;stroke-linecap:butt;stroke-linejoin:miter;stroke:rgb(0%,0%,0%);stroke-opacity:1;stroke-miterlimit:10;" d="M 965.453125 147.273438 L 1030.90625 147.273438 L 1030.90625 81.820313 L 965.453125 81.820313 Z M 965.453125 147.273438 "/>
<path style="fill-rule:nonzero;fill:rgb(1.176471%,76.078431%,98.823529%);fill-opacity:1;stroke-width:0.213396;stroke-linecap:butt;stroke-linejoin:miter;stroke:rgb(0%,0%,0%);stroke-opacity:1;stroke-miterlimit:10;" d="M 49.089844 81.816406 L 114.542969 81.816406 L 114.542969 16.363281 L 49.089844 16.363281 Z M 49.089844 81.816406 "/>
<path style="fill-rule:nonzero;fill:rgb(1.176471%,76.078431%,98.823529%);fill-opacity:1;stroke-width:0.213396;stroke-linecap:butt;stroke-linejoin:miter;stroke:rgb(0%,0%,0%);stroke-opacity:1;stroke-miterlimit:10;" d="M 114.546875 81.816406 L 180 81.816406 L 180 16.363281 L 114.546875 16.363281 Z M 114.546875 81.816406 "/>
<path style="fill-rule:nonzero;fill:rgb(1.176471%,76.078431%,98.823529%);fill-opacity:1;stroke-width:0.213396;stroke-linecap:butt;stroke-linejoin:miter;stroke:rgb(0%,0%,0%);stroke-opacity:1;stroke-miterlimit:10;" d="M 180 81.816406 L 245.453125 81.816406 L 245.453125 16.363281 L 180 16.363281 Z M 180 81.816406 "/>
<path style="fill-rule:nonzero;fill:rgb(1.176471%,76.078431%,98.823529%);fill-opacity:1;stroke-width:0.213396;stroke-linecap:butt;stroke-linejoin:miter;stroke:rgb(0%,0%,0%);stroke-opacity:1;stroke-miterlimit:10;" d="M 245.453125 81.816406 L 310.90625 81.816406 L 310.90625 16.363281 L 245.453125 16.363281 Z M 245.453125 81.816406 "/>
<path style="fill-rule:nonzero;fill:rgb(1.176471%,76.078431%,98.823529%);fill-opacity:1;stroke-width:0.213396;stroke-linecap:butt;stroke-linejoin:miter;stroke:rgb(0%,0%,0%);stroke-opacity:1;stroke-miterlimit:10;" d="M 310.910156 81.816406 L 376.363281 81.816406 L 376.363281 16.363281 L 310.910156 16.363281 Z M 310.910156 81.816406 "/>
<path style="fill-rule:nonzero;fill:rgb(1.176471%,76.078431%,98.823529%);fill-opacity:1;stroke-width:0.213396;stroke-linecap:butt;stroke-linejoin:miter;stroke:rgb(0%,0%,0%);stroke-opacity:1;stroke-miterlimit:10;" d="M 376.363281 81.816406 L 441.816406 81.816406 L 441.816406 16.363281 L 376.363281 16.363281 Z M 376.363281 81.816406 "/>
<path style="fill-rule:nonzero;fill:rgb(1.176471%,76.078431%,98.823529%);fill-opacity:1;stroke-width:0.213396;stroke-linecap:butt;stroke-linejoin:miter;stroke:rgb(0%,0%,0%);stroke-opacity:1;stroke-miterlimit:10;" d="M 441.816406 81.816406 L 507.269531 81.816406 L 507.269531 16.363281 L 441.816406 16.363281 Z M 441.816406 81.816406 "/>
<path style="fill-rule:nonzero;fill:rgb(1.176471%,76.078431%,98.823529%);fill-opacity:1;stroke-width:0.213396;stroke-linecap:butt;stroke-linejoin:miter;stroke:rgb(0%,0%,0%);stroke-opacity:1;stroke-miterlimit:10;" d="M 507.273438 81.816406 L 572.726563 81.816406 L 572.726563 16.363281 L 507.273438 16.363281 Z M 507.273438 81.816406 "/>
<path style="fill-rule:nonzero;fill:rgb(1.176471%,76.078431%,98.823529%);fill-opacity:1;stroke-width:0.213396;stroke-linecap:butt;stroke-linejoin:miter;stroke:rgb(0%,0%,0%);stroke-opacity:1;stroke-miterlimit:10;" d="M 572.726563 81.816406 L 638.179688 81.816406 L 638.179688 16.363281 L 572.726563 16.363281 Z M 572.726563 81.816406 "/>
<path style="fill-rule:nonzero;fill:rgb(1.176471%,76.078431%,98.823529%);fill-opacity:1;stroke-width:0.213396;stroke-linecap:butt;stroke-linejoin:miter;stroke:rgb(0%,0%,0%);stroke-opacity:1;stroke-miterlimit:10;" d="M 638.183594 81.816406 L 703.636719 81.816406 L 703.636719 16.363281 L 638.183594 16.363281 Z M 638.183594 81.816406 "/>
<path style="fill-rule:nonzero;fill:rgb(1.176471%,76.078431%,98.823529%);fill-opacity:1;stroke-width:0.213396;stroke-linecap:butt;stroke-linejoin:miter;stroke:rgb(0%,0%,0%);stroke-opacity:1;stroke-miterlimit:10;" d="M 703.636719 81.816406 L 769.089844 81.816406 L 769.089844 16.363281 L 703.636719 16.363281 Z M 703.636719 81.816406 "/>
<path style="fill-rule:nonzero;fill:rgb(1.176471%,76.078431%,98.823529%);fill-opacity:1;stroke-width:0.213396;stroke-linecap:butt;stroke-linejoin:miter;stroke:rgb(0%,0%,0%);stroke-opacity:1;stroke-miterlimit:10;" d="M 769.089844 81.816406 L 834.542969 81.816406 L 834.542969 16.363281 L 769.089844 16.363281 Z M 769.089844 81.816406 "/>
<path style="fill-rule:nonzero;fill:rgb(1.176471%,76.078431%,98.823529%);fill-opacity:1;stroke-width:0.213396;stroke-linecap:butt;stroke-linejoin:miter;stroke:rgb(0%,0%,0%);stroke-opacity:1;stroke-miterlimit:10;" d="M 834.546875 81.816406 L 900 81.816406 L 900 16.363281 L 834.546875 16.363281 Z M 834.546875 81.816406 "/>
<path style="fill-rule:nonzero;fill:rgb(1.176471%,76.078431%,98.823529%);fill-opacity:1;stroke-width:0.213396;stroke-linecap:butt;stroke-linejoin:miter;stroke:rgb(0%,0%,0%);stroke-opacity:1;stroke-miterlimit:10;" d="M 900 81.816406 L 965.453125 81.816406 L 965.453125 16.363281 L 900 16.363281 Z M 900 81.816406 "/>
<path style="fill-rule:nonzero;fill:rgb(1.176471%,76.078431%,98.823529%);fill-opacity:1;stroke-width:0.213396;stroke-linecap:butt;stroke-linejoin:miter;stroke:rgb(0%,0%,0%);stroke-opacity:1;stroke-miterlimit:10;" d="M 965.453125 81.816406 L 1030.90625 81.816406 L 1030.90625 16.363281 L 965.453125 16.363281 Z M 965.453125 81.816406 "/>
</g>
</svg>
