<?xml version="1.0" encoding="UTF-8"?>
<svg xmlns="http://www.w3.org/2000/svg" xmlns:xlink="http://www.w3.org/1999/xlink" width="1080pt" height="72pt" viewBox="0 0 1080 72" version="1.1">
<g id="surface4">
<rect x="0" y="0" width="1080" height="72" style="fill:rgb(100%,100%,100%);fill-opacity:1;stroke:none;"/>
<path style="fill-rule:nonzero;fill:rgb(1.176471%,76.078431%,98.823529%);fill-opacity:1;stroke-width:0.213396;stroke-linecap:butt;stroke-linejoin:miter;stroke:rgb(0%,0%,0%);stroke-opacity:1;stroke-miterlimit:10;" d="M 49.089844 68.726563 L 114.542969 68.726563 L 114.542969 3.273438 L 49.089844 3.273438 Z M 49.089844 68.726563 "/>
<path style="fill-rule:nonzero;fill:rgb(1.176471%,76.078431%,98.823529%);fill-opacity:1;stroke-width:0.213396;stroke-linecap:butt;stroke-linejoin:miter;stroke:rgb(0%,0%,0%);stroke-opacity:1;stroke-miterlimit:10;" d="M 114.546875 68.726563 L 180 68.726563 L 180 3.273438 L 114.546875 3.273438 Z M 114.546875 68.726563 "/>
<path style="fill-rule:nonzero;fill:rgb(1.176471%,76.078431%,98.823529%);fill-opacity:1;stroke-width:0.213396;stroke-linecap:butt;stroke-linejoin:miter;stroke:rgb(0%,0%,0%);stroke-opacity:1;stroke-miterlimit:10;" d="M 180 68.726563 L 245.453125 68.726563 L 245.453125 3.273438 L 180 3.273438 Z M 180 68.726563 "/>
<path style="fill-rule:nonzero;fill:rgb(1.176471%,76.078431%,98.823529%);fill-opacity:1;stroke-width:0.213396;stroke-linecap:butt;stroke-linejoin:miter;stroke:rgb(0%,0%,0%);stroke-opacity:1;stroke-miterlimit:10;" d="M 245.453125 68.726563 L 310.90625 68.726563 L 310.90625 3.273438 L 245.453125 3.273438 Z M 245.453125 68.726563 "/>
<path style="fill-rule:nonzero;fill:rgb(1.176471%,76.078431%,98.823529%);fill-opacity:1;stroke-width:0.213396;stroke-linecap:butt;stroke-linejoin:miter;stroke:rgb(0%,0%,0%);stroke-opacity:1;stroke-miterlimit:10;" d="M 310.910156 68.726563 L 376.363281 68.726563 L 376.363281 3.273438 L 310.910156 3.273438 Z M 310.910156 68.726563 "/>
<path style="fill-rule:nonzero;fill:rgb(1.176471%,76.078431%,98.823529%);fill-opacity:1;stroke-width:0.213396;stroke-linecap:butt;stroke-linejoin:miter;stroke:rgb(0%,0%,0%);stroke-opacity:1;stroke-miterlimit:10;" d="M 376.363281 68.726563 L 441.816406 68.726563 L 441.816406 3.273438 L 376.363281 3.273438 Z M 376.363281 68.726563 "/>
<path style="fill-rule:nonzero;fill:rgb(1.176471%,76.078431%,98.823529%);fill-opacity:1;stroke-width:0.213396;stroke-linecap:butt;stroke-linejoin:miter;stroke:rgb(0%,0%,0%);stroke-opacity:1;stroke-miterlimit:10;" d="M 441.816406 68.726563 L 507.269531 68.726563 L 507.269531 3.273438 L 441.816406 3.273438 Z M 441.816406 68.726563 "/>
<path style="fill-rule:nonzero;fill:rgb(1.176471%,76.078431%,98.823529%);fill-opacity:1;stroke-width:0.213396;stroke-linecap:butt;stroke-linejoin:miter;stroke:rgb(0%,0%,0%);stroke-opacity:1;stroke-miterlimit:10;" d="M 507.273438 68.726563 L 572.726563 68.726563 L 572.726563 3.273438 L 507.273438 3.273438 Z M 507.273438 68.726563 "/>
<path style="fill-rule:nonzero;fill:rgb(1.176471%,76.078431%,98.823529%);fill-opacity:1;stroke-width:0.213396;stroke-linecap:butt;stroke-linejoin:miter;stroke:rgb(0%,0%,0%);stroke-opacity:1;stroke-miterlimit:10;" d="M 572.726563 68.726563 L 638.179688 68.726563 L 638.179688 3.273438 L 572.726563 3.273438 Z M 572.726563 68.726563 "/>
<path style="fill-rule:nonzero;fill:rgb(1.176471%,76.078431%,98.823529%);fill-opacity:1;stroke-width:0.213396;stroke-linecap:butt;stroke-linejoin:miter;stroke:rgb(0%,0%,0%);stroke-opacity:1;stroke-miterlimit:10;" d="M 638.183594 68.726563 L 703.636719 68.726563 L 703.636719 3.273438 L 638.183594 3.273438 Z M 638.183594 68.726563 "/>
<path style="fill-rule:nonzero;fill:rgb(1.176471%,76.078431%,98.823529%);fill-opacity:1;stroke-width:0.213396;stroke-linecap:butt;stroke-linejoin:miter;stroke:rgb(0%,0%,0%);stroke-opacity:1;stroke-miterlimit:10;" d="M 703.636719 68.726563 L 769.089844 68.726563 L 769.089844 3.273438 L 703.636719 3.273438 Z M 703.636719 68.726563 "/>
<path style="fill-rule:nonzero;fill:rgb(1.176471%,76.078431%,98.823529%);fill-opacity:1;stroke-width:0.213396;stroke-linecap:butt;stroke-linejoin:miter;stroke:rgb(0%,0%,0%);stroke-opacity:1;stroke-miterlimit:10;" d="M 769.089844 68.726563 L 834.542969 68.726563 L 834.542969 3.273438 L 769.089844 3.273438 Z M 769.089844 68.726563 "/>
<path style="fill-rule:nonzero;fill:rgb(1.176471%,76.078431%,98.823529%);fill-opacity:1;stroke-width:0.213396;stroke-linecap:butt;stroke-linejoin:miter;stroke:rgb(0%,0%,0%);stroke-opacity:1;stroke-miterlimit:10;" d="M 834.546875 68.726563 L 900 68.726563 L 900 3.273438 L 834.546875 3.273438 Z M 834.546875 68.726563 "/>
<path style="fill-rule:nonzero;fill:rgb(1.176471%,76.078431%,98.823529%);fill-opacity:1;stroke-width:0.213396;stroke-linecap:butt;stroke-linejoin:miter;stroke:rgb(0%,0%,0%);stroke-opacity:1;stroke-miterlimit:10;" d="M 900 68.726563 L 965.453125 68.726563 L 965.453125 3.273438 L 900 3.273438 Z M 900 68.726563 "/>
<path style="fill-rule:nonzero;fill:rgb(1.176471%,76.078431%,98.823529%);fill-opacity:1;stroke-width:0.213396;stroke-linecap:butt;stroke-linejoin:miter;stroke:rgb(0%,0%,0%);stroke-opacity:1;stroke-miterlimit:10;" d="M 965.453125 68.726563 L 1030.90625 68.726563 L 1030.90625 3.273438 L 965.453125 3.273438 Z M 965.453125 68.726563 "/>
</g>
</svg>
